<svg viewBox="0 0 100 100" xmlns="http://www.w3.org/2000/svg" xmlns:xlink="http://www.w3.org/1999/xlink" width="100.000000" height="100.000000" fill="none">
	<defs>
		<g id="pixso_custom_effect_0">
			<effect x="0.000000" y="4.000000" visibility="visible" fill="rgb(47,62,108)" fill-opacity="0.25" effectType="innerShadow" stdDeviation="4" radius="0" />
		</g>
		<filter id="filter_0" width="42.000000" height="51.000000" x="29.000000" y="5.000000" filterUnits="userSpaceOnUse" customEffect="url(#pixso_custom_effect_0)" color-interpolation-filters="sRGB">
			<feFlood flood-opacity="0" result="BackgroundImageFix" />
			<feBlend result="shape" in="SourceGraphic" in2="BackgroundImageFix" mode="normal" />
			<feOffset dx="0.000000" dy="4.000000" in="SourceAlpha" />
			<feGaussianBlur stdDeviation="1.33333337" />
			<feComposite k2="-1" k3="1" in2="SourceAlpha" operator="arithmetic" />
			<feColorMatrix type="matrix" values="0 0 0 0 0.184314 0 0 0 0 0.243137 0 0 0 0 0.423529 0 0 0 0.25 0 " />
			<feBlend result="effect_innerShadow_1" in2="shape" mode="normal" />
		</filter>
		<g id="pixso_custom_effect_1">
			<effect x="0.000000" y="2.000000" visibility="visible" fill="rgb(47,62,108)" fill-opacity="0.410000026" effectType="innerShadow" stdDeviation="4" radius="0" />
			<effect x="0.000000" y="4.000000" visibility="visible" fill="rgb(0,0,0)" fill-opacity="0.25" effectType="dropShadow" stdDeviation="4" radius="0" />
		</g>
		<filter id="filter_1" width="20.000000" height="20.000000" x="25.000000" y="67.000000" filterUnits="userSpaceOnUse" customEffect="url(#pixso_custom_effect_1)" color-interpolation-filters="sRGB">
			<feFlood flood-opacity="0" result="BackgroundImageFix" />
			<feOffset dx="0.000000" dy="4.000000" in="SourceAlpha" />
			<feGaussianBlur stdDeviation="1.33333337" />
			<feColorMatrix type="matrix" values="0 0 0 0 0 0 0 0 0 0 0 0 0 0 0 0 0 0 0.25 0 " />
			<feBlend result="effect_dropShadow_1" in2="BackgroundImageFix" mode="normal" />
			<feBlend result="shape" in="SourceGraphic" in2="effect_dropShadow_1" mode="normal" />
			<feOffset dx="0.000000" dy="2.000000" in="SourceAlpha" />
			<feGaussianBlur stdDeviation="1.33333337" />
			<feComposite k2="-1" k3="1" in2="SourceAlpha" operator="arithmetic" />
			<feColorMatrix type="matrix" values="0 0 0 0 0.184314 0 0 0 0 0.243137 0 0 0 0 0.423529 0 0 0 0.41 0 " />
			<feBlend result="effect_innerShadow_2" in2="shape" mode="normal" />
		</filter>
		<g id="pixso_custom_effect_2">
			<effect x="0.000000" y="2.000000" visibility="visible" fill="rgb(47,62,108)" fill-opacity="0.300000012" effectType="innerShadow" stdDeviation="4" radius="0" />
			<effect x="0.000000" y="4.000000" visibility="visible" fill="rgb(0,0,0)" fill-opacity="0.25" effectType="dropShadow" stdDeviation="4" radius="0" />
		</g>
		<filter id="filter_2" width="20.000000" height="20.000000" x="40.000000" y="67.000000" filterUnits="userSpaceOnUse" customEffect="url(#pixso_custom_effect_2)" color-interpolation-filters="sRGB">
			<feFlood flood-opacity="0" result="BackgroundImageFix" />
			<feOffset dx="0.000000" dy="4.000000" in="SourceAlpha" />
			<feGaussianBlur stdDeviation="1.33333337" />
			<feColorMatrix type="matrix" values="0 0 0 0 0 0 0 0 0 0 0 0 0 0 0 0 0 0 0.25 0 " />
			<feBlend result="effect_dropShadow_1" in2="BackgroundImageFix" mode="normal" />
			<feBlend result="shape" in="SourceGraphic" in2="effect_dropShadow_1" mode="normal" />
			<feOffset dx="0.000000" dy="2.000000" in="SourceAlpha" />
			<feGaussianBlur stdDeviation="1.33333337" />
			<feComposite k2="-1" k3="1" in2="SourceAlpha" operator="arithmetic" />
			<feColorMatrix type="matrix" values="0 0 0 0 0.184314 0 0 0 0 0.243137 0 0 0 0 0.423529 0 0 0 0.3 0 " />
			<feBlend result="effect_innerShadow_2" in2="shape" mode="normal" />
		</filter>
		<g id="pixso_custom_effect_3">
			<effect x="0.000000" y="2.000000" visibility="visible" fill="rgb(47,62,108)" fill-opacity="0.300000012" effectType="innerShadow" stdDeviation="4" radius="0" />
			<effect x="0.000000" y="4.000000" visibility="visible" fill="rgb(0,0,0)" fill-opacity="0.25" effectType="dropShadow" stdDeviation="4" radius="0" />
		</g>
		<filter id="filter_3" width="20.000000" height="20.000000" x="55.000000" y="67.000000" filterUnits="userSpaceOnUse" customEffect="url(#pixso_custom_effect_3)" color-interpolation-filters="sRGB">
			<feFlood flood-opacity="0" result="BackgroundImageFix" />
			<feOffset dx="0.000000" dy="4.000000" in="SourceAlpha" />
			<feGaussianBlur stdDeviation="1.33333337" />
			<feColorMatrix type="matrix" values="0 0 0 0 0 0 0 0 0 0 0 0 0 0 0 0 0 0 0.25 0 " />
			<feBlend result="effect_dropShadow_1" in2="BackgroundImageFix" mode="normal" />
			<feBlend result="shape" in="SourceGraphic" in2="effect_dropShadow_1" mode="normal" />
			<feOffset dx="0.000000" dy="2.000000" in="SourceAlpha" />
			<feGaussianBlur stdDeviation="1.33333337" />
			<feComposite k2="-1" k3="1" in2="SourceAlpha" operator="arithmetic" />
			<feColorMatrix type="matrix" values="0 0 0 0 0.184314 0 0 0 0 0.243137 0 0 0 0 0.423529 0 0 0 0.3 0 " />
			<feBlend result="effect_innerShadow_2" in2="shape" mode="normal" />
		</filter>
	</defs>
	<rect id="容器 2" width="100.000000" height="100.000000" x="0.000000" y="0.000000" />
	<g id="参考线-参考线+" opacity="0">
		<line id="直线 1" x1="0" x2="100" y1="0" y2="0" stroke="rgb(33,148,227)" stroke-width="1" transform="matrix(0,1,-1,0,61.8,0)" />
		<line id="直线 2" x1="0" x2="100" y1="0" y2="0" stroke="rgb(33,148,227)" stroke-width="1" transform="matrix(0,1,-1,0,38.2,0)" />
		<line id="直线 3" x1="0" x2="100" y1="61.7999878" y2="61.7999878" stroke="rgb(33,148,227)" stroke-width="1" />
		<line id="直线 4" x1="0" x2="100" y1="38.2000122" y2="38.2000122" stroke="rgb(33,148,227)" stroke-width="1" />
		<line id="直线 5" x1="0" x2="100" y1="0" y2="0" stroke="rgb(33,148,227)" stroke-width="1" transform="matrix(0,1,-1,0,33.3333,0)" />
		<line id="直线 6" x1="0" x2="100" y1="0" y2="0" stroke="rgb(33,148,227)" stroke-width="1" transform="matrix(0,1,-1,0,66.6667,0)" />
		<line id="直线 7" x1="0" x2="100" y1="33.333313" y2="33.333313" stroke="rgb(33,148,227)" stroke-width="1" />
		<line id="直线 8" x1="0" x2="100" y1="66.666687" y2="66.666687" stroke="rgb(33,148,227)" stroke-width="1" />
		<line id="直线 9" x1="0" x2="141.421356" y1="0" y2="0" stroke="rgb(33,148,227)" stroke-width="1" transform="matrix(-0.707107,0.707107,-0.707107,-0.707107,100,0)" />
		<line id="直线 10" x1="0" x2="141.421356" y1="0" y2="0" stroke="rgb(33,148,227)" stroke-width="1" transform="matrix(0.707107,0.707107,-0.707107,0.707107,0,0)" />
		<line id="直线 11" x1="0" x2="100" y1="61.7999878" y2="61.7999878" stroke="rgb(33,148,227)" stroke-width="1" />
		<line id="直线 12" x1="0" x2="100" y1="0" y2="0" stroke="rgb(33,148,227)" stroke-width="1" transform="matrix(0,1,-1,0,0,0)" />
		<line id="直线 13" x1="0" x2="100" y1="0" y2="0" stroke="rgb(33,148,227)" stroke-width="1" transform="matrix(0,1,-1,0,4,0)" />
		<line id="直线 14" x1="0" x2="100" y1="0" y2="0" stroke="rgb(33,148,227)" stroke-width="1" transform="matrix(0,1,-1,0,96,0)" />
		<line id="直线 15" x1="0" x2="100" y1="0" y2="0" stroke="rgb(33,148,227)" stroke-width="1" transform="matrix(0,1,-1,0,100,0)" />
		<line id="直线 16" x1="0" x2="100" y1="0" y2="0" stroke="rgb(33,148,227)" stroke-width="1" />
		<line id="直线 17" x1="0" x2="100" y1="4" y2="4" stroke="rgb(33,148,227)" stroke-width="1" />
		<line id="直线 18" x1="0" x2="100" y1="96" y2="96" stroke="rgb(33,148,227)" stroke-width="1" />
		<line id="直线 19" x1="0" x2="100" y1="100" y2="100" stroke="rgb(33,148,227)" stroke-width="1" />
		<line id="直线 20" x1="27" x2="70" y1="56.1359863" y2="56.1359863" stroke="rgb(33,148,227)" stroke-width="1" />
	</g>
	<g filter="url(#filter_0)">
		<path id="矢量 1" d="M44.0502 5.52819C44.9223 4.79685 46.207 4.82498 47.0415 5.61258C48.1949 6.70021 49.2264 7.90036 50.2204 9.11926C51.4863 10.6663 53.0054 12.7103 54.4682 15.1387C54.9558 14.5012 55.4059 13.9386 55.7997 13.4604C55.9029 13.3385 56.006 13.2073 56.1092 13.076C56.85 12.1571 57.7689 11.0039 58.9973 11.0039C60.2538 11.0039 61.1353 12.1196 61.8855 13.076C62.0074 13.2354 62.1293 13.3854 62.2512 13.526C63.217 14.6887 64.5017 16.367 65.7863 18.4391C68.3369 22.5553 71 28.4154 71 34.9974C71 46.5957 61.5948 56 49.9953 56C38.3958 56 29 46.6051 29 35.0068C29 26.4651 32.854 19.0673 36.5486 13.9105C38.4146 11.3133 40.2713 9.23177 41.6685 7.80659C42.4374 7.019 43.2157 6.24078 44.0596 5.53757L44.0502 5.52819ZM50.1641 47.0083C52.5365 47.0083 54.637 46.3519 56.6155 45.0393C60.5633 42.2827 61.6229 36.7695 59.2505 32.4377C58.8285 31.5939 57.7502 31.5376 57.1407 32.2502L54.7776 34.9974C54.1587 35.71 53.0429 35.6913 52.4615 34.9505C50.8392 32.8784 47.8573 29.0998 46.3382 27.1683C45.8319 26.5214 44.9129 26.4182 44.3222 26.9902C42.6062 28.6592 39.493 32.3158 39.493 36.7695C39.493 43.2016 44.2378 47.0083 50.1547 47.0083L50.1641 47.0083Z" fill="rgb(54,98,233)" fill-rule="nonzero" />
	</g>
	<path id="矢量 1" d="M53.9066 14.2289C52.6221 12.1972 51.3249 10.4691 50.2204 9.11926C49.2264 7.90036 48.1949 6.70021 47.0415 5.61258C46.4761 5.07901 45.7042 4.894 44.9939 5.05756C44.6561 5.13534 44.3322 5.29196 44.0512 5.52742L44.0502 5.52819L44.0596 5.53757L44.0587 5.53831C43.8023 5.75199 43.552 5.97259 43.3061 6.19827C42.743 6.7151 42.2035 7.25858 41.6685 7.80659C40.2713 9.23177 38.4146 11.3133 36.5486 13.9105C32.854 19.0673 29 26.4651 29 35.0068C29 46.6051 38.3958 56 49.9953 56C61.5948 56 71 46.5957 71 34.9974C71 28.4154 68.3369 22.5553 65.7863 18.4391C64.5017 16.367 63.217 14.6887 62.2512 13.526C62.1293 13.3854 62.0074 13.2354 61.8855 13.076C61.1353 12.1196 60.2538 11.0039 58.9973 11.0039C57.7689 11.0039 56.85 12.1571 56.1092 13.076C56.006 13.2073 55.9029 13.3385 55.7997 13.4604C55.59 13.7151 55.3643 13.9936 55.1255 14.2947C54.9159 14.559 54.6961 14.8407 54.4682 15.1387C54.2817 14.8291 54.0943 14.5258 53.9066 14.2289ZM44.8508 6.17999L44.6998 6.30582C44.0972 6.80789 43.3248 7.5415 42.3825 8.50665C40.5854 10.3398 38.9117 12.3352 37.3615 14.4929C32.4538 21.3429 30 28.1809 30 35.0068C30 36.5234 30.1635 38.003 30.4906 39.4454C30.7487 40.5836 31.1087 41.6986 31.5704 42.7906C32.0445 43.9117 32.6101 44.9728 33.2673 45.9737C34.0122 47.1082 34.8747 48.1655 35.8549 49.1456C36.8344 50.125 37.891 50.987 39.0248 51.7314C40.0265 52.3892 41.0885 52.9553 42.2107 53.4298C43.3024 53.8913 44.4172 54.2511 45.5551 54.5091C46.998 54.8364 48.4781 55 49.9953 55C51.5031 55 52.9745 54.8382 54.4093 54.5147C55.5566 54.256 56.6806 53.8939 57.7813 53.4284C58.9001 52.9551 59.9592 52.3908 60.9585 51.7353C62.0967 50.9887 63.1573 50.1239 64.1404 49.1409C65.1245 48.157 65.9901 47.0953 66.7372 45.956C67.3918 44.9578 67.9555 43.8999 68.4282 42.7825C68.894 41.6815 69.2562 40.5572 69.515 39.4096C69.8383 37.9753 70 36.5046 70 34.9974C70 29.7576 68.3121 24.4138 64.9364 18.9661C63.8894 17.2773 62.7424 15.6822 61.4955 14.181C61.3603 14.025 61.228 13.8624 61.0986 13.6932C60.6218 13.0852 60.2508 12.6691 59.9855 12.4448C59.6379 12.1509 59.3085 12.0039 58.9973 12.0039C58.7038 12.0039 58.3802 12.1526 58.0264 12.4502C57.7606 12.6738 57.3874 13.0837 56.9069 13.6797L56.8973 13.6917C56.8969 13.6922 56.8963 13.6929 56.8955 13.6938C56.7505 13.8784 56.6425 14.0125 56.5716 14.0962C56.1314 14.6307 55.695 15.1807 55.2625 15.7462L54.3698 16.9135L53.6116 15.6547C52.3757 13.603 50.9869 11.6352 49.4454 9.75123C48.275 8.31601 47.245 7.17897 46.3555 6.34011L46.3552 6.33985C46.2387 6.22997 46.1114 6.14673 45.9732 6.09013C45.8372 6.03447 45.6907 6.00457 45.5336 6.00044C45.3771 5.99632 45.2295 6.01815 45.0908 6.06593C45.0076 6.0946 44.9276 6.13263 44.8508 6.17999ZM57.1783 45.866L57.188 45.8592C58.1387 45.1954 58.9343 44.4197 59.575 43.5322C60.4033 42.3848 60.9726 41.0504 61.2829 39.529C61.5442 38.2479 61.5896 36.9969 61.419 35.7762C61.237 34.4739 60.8093 33.206 60.1358 31.9725C59.94 31.5873 59.6852 31.2935 59.3715 31.0911C59.0794 30.9026 58.7363 30.7934 58.3422 30.7632C57.9894 30.7363 57.6625 30.7786 57.3612 30.8903C56.9967 31.0255 56.6699 31.2621 56.3807 31.6002L54.0195 34.3453C53.97 34.4023 53.9141 34.4452 53.8516 34.4742C53.7836 34.5058 53.708 34.5208 53.6246 34.5192C53.5437 34.5176 53.4709 34.5002 53.4064 34.4668C53.3466 34.4359 53.2938 34.3914 53.2481 34.3331L50.2786 30.5553L47.1239 26.5496C46.8938 26.2557 46.6281 26.031 46.3267 25.8756C46.064 25.7401 45.7742 25.6571 45.4573 25.6267C45.1124 25.5937 44.7905 25.628 44.4915 25.7297C44.178 25.8363 43.8897 26.017 43.6266 26.2717C42.3306 27.5322 41.2561 28.8839 40.4032 30.3267C39.1297 32.4811 38.493 34.6287 38.493 36.7695C38.493 38.993 38.9763 40.9352 39.943 42.596C40.4649 43.4926 41.1277 44.3073 41.9313 45.0399C42.5301 45.5858 43.1724 46.0565 43.8581 46.4518C45.6578 47.4894 47.7567 48.0083 50.1547 48.0083L50.1641 48.0083C51.2716 48.0083 52.3427 47.8712 53.3775 47.5969C54.7005 47.2463 55.9642 46.6715 57.1684 45.8726L57.1783 45.866ZM59.2505 32.4377C61.6229 36.7695 60.5633 42.2827 56.6155 45.0393C54.637 46.3519 52.5365 47.0083 50.1641 47.0083L50.1547 47.0083C44.2378 47.0083 39.493 43.2016 39.493 36.7695C39.493 32.3158 42.6062 28.6592 44.3222 26.9902C44.9129 26.4182 45.8319 26.5214 46.3382 27.1683C47.8573 29.0998 50.8392 32.8784 52.4615 34.9505C53.0429 35.6913 54.1587 35.71 54.7776 34.9974L57.1407 32.2502C57.7502 31.5376 58.8285 31.5939 59.2505 32.4377Z" fill="rgb(33,148,227)" fill-rule="evenodd" />
	<g id="组合 1">
		<g filter="url(#filter_1)">
			<circle id="椭圆 1" cx="35" cy="73" r="6" fill="rgb(54,98,233)" />
		</g>
		<g filter="url(#filter_2)">
			<circle id="椭圆 2" cx="50" cy="73" r="6" fill="rgb(54,98,233)" />
		</g>
		<g filter="url(#filter_3)">
			<circle id="椭圆 3" cx="65" cy="73" r="6" fill="rgb(54,98,233)" />
		</g>
	</g>
</svg>
